<?xml version="1.0" encoding="UTF-8"?>
<svg xmlns="http://www.w3.org/2000/svg" viewBox="0 0 750 535" role="img" aria-labelledby="title desc">
  <title id="title">SmartPC logo</title>
  <desc id="desc">Vectorized SmartPC logo with icon and name, without slogan.</desc>
  <g fill-rule="evenodd" clip-rule="evenodd">
    <path fill="#11bdb3" d="M 401.0 522.0 L 399.0 521.0 L 397.0 523.0 L 400.0 524.0 Z M 342.0 520.0 L 340.0 521.0 L 341.0 523.0 Z M 59.0 506.0 L 63.0 507.0 L 62.0 505.0 Z M 682.0 505.0 L 682.0 507.0 L 689.0 507.0 L 688.0 503.0 L 686.0 502.0 Z M 450.0 499.0 L 449.0 509.0 L 453.0 516.0 L 454.0 515.0 L 453.0 511.0 L 454.0 503.0 Z M 204.0 496.0 L 201.0 502.0 L 202.0 504.0 L 201.0 507.0 L 203.0 508.0 L 205.0 512.0 L 207.0 512.0 L 208.0 509.0 L 206.0 506.0 L 209.0 500.0 Z M 521.0 493.0 L 520.0 501.0 L 525.0 510.0 L 524.0 513.0 L 525.0 515.0 L 527.0 515.0 L 527.0 513.0 L 529.0 512.0 L 529.0 501.0 L 531.0 499.0 Z M 352.0 493.0 L 347.0 497.0 L 343.0 497.0 L 342.0 499.0 L 341.0 498.0 L 341.0 503.0 L 342.0 504.0 L 348.0 503.0 L 352.0 507.0 L 350.0 510.0 L 353.0 518.0 L 356.0 520.0 L 358.0 518.0 L 357.0 506.0 L 359.0 505.0 L 359.0 502.0 L 356.0 499.0 L 356.0 494.0 Z M 331.0 494.0 L 339.0 494.0 L 337.0 492.0 L 332.0 492.0 Z M 352.0 482.0 L 353.0 485.0 L 359.0 488.0 L 360.0 485.0 L 356.0 480.0 Z M 119.0 479.0 L 121.0 481.0 L 123.0 480.0 L 121.0 478.0 Z M 69.0 473.0 L 65.0 472.0 L 62.0 475.0 L 67.0 476.0 Z M 450.0 471.0 L 450.0 473.0 L 453.0 472.0 L 453.0 471.0 Z M 270.0 471.0 L 269.0 472.0 L 269.0 482.0 L 272.0 484.0 L 274.0 483.0 L 274.0 481.0 L 272.0 480.0 L 273.0 473.0 Z M 252.0 471.0 L 251.0 473.0 L 254.0 476.0 L 255.0 473.0 Z M 526.0 457.0 L 526.0 460.0 L 527.0 461.0 L 529.0 460.0 L 529.0 458.0 L 528.0 459.0 Z M 230.0 456.0 L 232.0 459.0 L 233.0 457.0 Z M 614.0 454.0 L 611.0 457.0 L 612.0 459.0 L 614.0 457.0 Z M 121.0 445.0 L 117.0 447.0 L 118.0 449.0 L 121.0 447.0 Z M 64.0 437.0 L 65.0 438.0 L 67.0 436.0 Z M 146.0 339.0 L 147.0 347.0 L 153.0 361.0 L 166.0 372.0 L 182.0 377.0 L 568.0 377.0 L 576.0 375.0 L 588.0 368.0 L 596.0 360.0 L 601.0 346.0 L 600.0 336.0 L 428.0 336.0 L 421.0 345.0 L 414.0 349.0 L 334.0 349.0 L 330.0 347.0 L 320.0 336.0 L 252.0 336.0 L 251.0 335.0 L 248.0 336.0 L 148.0 336.0 Z M 521.0 355.0 L 524.0 354.0 L 526.0 357.0 L 522.0 359.0 Z M 558.0 353.0 L 562.0 353.0 L 564.0 355.0 L 564.0 358.0 L 561.0 361.0 L 559.0 361.0 L 556.0 358.0 L 556.0 355.0 Z M 181.0 356.0 L 187.0 353.0 L 216.0 353.0 L 220.0 355.0 L 218.0 359.0 L 207.0 359.0 L 206.0 360.0 L 184.0 360.0 Z M 541.0 352.0 L 543.0 352.0 L 546.0 355.0 L 546.0 357.0 L 543.0 360.0 L 540.0 360.0 L 538.0 358.0 L 538.0 355.0 Z M 254.0 112.0 L 255.0 121.0 L 260.0 128.0 L 266.0 131.0 L 300.0 131.0 L 316.0 133.0 L 332.0 139.0 L 349.0 149.0 L 368.0 168.0 L 373.0 175.0 L 382.0 193.0 L 385.0 193.0 L 395.0 183.0 L 403.0 178.0 L 419.0 171.0 L 418.0 139.0 L 419.0 134.0 L 421.0 132.0 L 453.0 132.0 L 464.0 136.0 L 470.0 142.0 L 474.0 149.0 L 475.0 157.0 L 471.0 170.0 L 464.0 178.0 L 455.0 182.0 L 425.0 182.0 L 418.0 184.0 L 404.0 192.0 L 392.0 204.0 L 385.0 218.0 L 382.0 230.0 L 382.0 271.0 L 384.0 273.0 L 395.0 272.0 L 403.0 268.0 L 410.0 262.0 L 415.0 255.0 L 419.0 245.0 L 419.0 230.0 L 422.0 224.0 L 426.0 220.0 L 433.0 217.0 L 464.0 216.0 L 477.0 212.0 L 489.0 204.0 L 496.0 197.0 L 504.0 186.0 L 509.0 174.0 L 511.0 162.0 L 510.0 146.0 L 506.0 132.0 L 500.0 120.0 L 487.0 108.0 L 469.0 99.0 L 461.0 97.0 L 387.0 97.0 L 384.0 98.0 L 382.0 100.0 L 382.0 127.0 L 380.0 129.0 L 377.0 128.0 L 363.0 116.0 L 339.0 104.0 L 319.0 98.0 L 271.0 97.0 L 260.0 101.0 L 256.0 105.0 Z M 201.0 68.0 L 195.0 78.0 L 190.0 92.0 L 187.0 112.0 L 189.0 132.0 L 194.0 146.0 L 201.0 158.0 L 218.0 174.0 L 240.0 185.0 L 250.0 187.0 L 297.0 187.0 L 304.0 189.0 L 317.0 196.0 L 326.0 205.0 L 332.0 218.0 L 332.0 231.0 L 327.0 246.0 L 318.0 256.0 L 306.0 263.0 L 298.0 265.0 L 221.0 265.0 L 219.0 263.0 L 219.0 242.0 L 221.0 240.0 L 290.0 240.0 L 299.0 233.0 L 302.0 227.0 L 301.0 216.0 L 295.0 209.0 L 291.0 207.0 L 243.0 206.0 L 231.0 203.0 L 207.0 191.0 L 191.0 177.0 L 188.0 177.0 L 188.0 216.0 L 187.0 217.0 L 188.0 224.0 L 188.0 251.0 L 187.0 252.0 L 188.0 255.0 L 187.0 261.0 L 188.0 264.0 L 187.0 268.0 L 188.0 299.0 L 193.0 312.0 L 203.0 321.0 L 215.0 325.0 L 533.0 325.0 L 545.0 321.0 L 553.0 314.0 L 560.0 301.0 L 560.0 65.0 L 556.0 55.0 L 552.0 49.0 L 546.0 44.0 L 538.0 40.0 L 526.0 38.0 L 518.0 39.0 L 516.0 38.0 L 506.0 38.0 L 505.0 39.0 L 503.0 38.0 L 501.0 39.0 L 498.0 38.0 L 493.0 39.0 L 486.0 38.0 L 473.0 38.0 L 472.0 39.0 L 464.0 38.0 L 457.0 39.0 L 454.0 38.0 L 436.0 38.0 L 435.0 39.0 L 431.0 38.0 L 408.0 38.0 L 407.0 39.0 L 406.0 38.0 L 382.0 38.0 L 381.0 39.0 L 378.0 38.0 L 376.0 39.0 L 374.0 38.0 L 326.0 38.0 L 325.0 39.0 L 259.0 38.0 L 236.0 42.0 L 225.0 47.0 L 212.0 56.0 Z M 230.0 88.0 L 239.0 79.0 L 245.0 75.0 L 256.0 71.0 L 524.0 71.0 L 528.0 77.0 L 528.0 176.0 L 527.0 177.0 L 528.0 281.0 L 527.0 291.0 L 521.0 295.0 L 331.0 294.0 L 329.0 292.0 L 344.0 281.0 L 353.0 272.0 L 365.0 250.0 L 368.0 232.0 L 368.0 214.0 L 362.0 194.0 L 357.0 184.0 L 347.0 173.0 L 339.0 166.0 L 323.0 157.0 L 310.0 153.0 L 299.0 153.0 L 298.0 152.0 L 257.0 152.0 L 249.0 150.0 L 237.0 143.0 L 229.0 134.0 L 223.0 121.0 L 223.0 103.0 Z "/>
    <path fill="#073d4f" d="M 428.0 450.0 L 421.0 450.0 L 414.0 452.0 L 404.0 460.0 L 402.0 459.0 L 401.0 451.0 L 383.0 451.0 L 382.0 452.0 L 382.0 526.0 L 383.0 527.0 L 402.0 527.0 L 403.0 526.0 L 404.0 484.0 L 408.0 476.0 L 414.0 471.0 L 429.0 468.0 L 429.0 451.0 Z M 294.0 458.0 L 294.0 461.0 L 298.0 470.0 L 301.0 473.0 L 314.0 467.0 L 330.0 467.0 L 338.0 472.0 L 341.0 479.0 L 339.0 482.0 L 311.0 483.0 L 304.0 485.0 L 296.0 490.0 L 292.0 496.0 L 290.0 503.0 L 291.0 512.0 L 296.0 521.0 L 303.0 526.0 L 315.0 529.0 L 328.0 528.0 L 335.0 525.0 L 340.0 521.0 L 342.0 522.0 L 342.0 525.0 L 344.0 527.0 L 361.0 527.0 L 362.0 526.0 L 362.0 478.0 L 360.0 468.0 L 356.0 461.0 L 345.0 453.0 L 333.0 450.0 L 312.0 451.0 L 304.0 453.0 Z M 311.0 507.0 L 311.0 501.0 L 318.0 495.0 L 339.0 495.0 L 341.0 497.0 L 341.0 501.0 L 338.0 508.0 L 332.0 513.0 L 318.0 514.0 Z M 148.0 452.0 L 148.0 526.0 L 149.0 527.0 L 168.0 527.0 L 169.0 526.0 L 169.0 485.0 L 172.0 476.0 L 178.0 470.0 L 183.0 468.0 L 189.0 468.0 L 194.0 470.0 L 198.0 474.0 L 201.0 483.0 L 201.0 526.0 L 202.0 527.0 L 221.0 527.0 L 222.0 526.0 L 222.0 482.0 L 225.0 475.0 L 230.0 470.0 L 235.0 468.0 L 242.0 468.0 L 247.0 470.0 L 253.0 479.0 L 254.0 526.0 L 255.0 527.0 L 274.0 527.0 L 275.0 526.0 L 274.0 473.0 L 269.0 461.0 L 260.0 453.0 L 250.0 450.0 L 234.0 451.0 L 225.0 455.0 L 218.0 462.0 L 209.0 454.0 L 198.0 450.0 L 182.0 451.0 L 177.0 453.0 L 171.0 458.0 L 168.0 457.0 L 167.0 451.0 L 149.0 451.0 Z M 449.0 434.0 L 448.0 435.0 L 448.0 451.0 L 446.0 453.0 L 436.0 454.0 L 436.0 468.0 L 446.0 469.0 L 448.0 471.0 L 448.0 509.0 L 450.0 515.0 L 457.0 524.0 L 466.0 528.0 L 480.0 529.0 L 492.0 526.0 L 494.0 523.0 L 489.0 510.0 L 482.0 512.0 L 476.0 512.0 L 469.0 505.0 L 469.0 471.0 L 471.0 469.0 L 487.0 469.0 L 488.0 468.0 L 488.0 454.0 L 487.0 453.0 L 471.0 453.0 L 469.0 451.0 L 469.0 435.0 L 468.0 434.0 Z M 572.0 432.0 L 562.0 429.0 L 509.0 429.0 L 508.0 430.0 L 508.0 526.0 L 509.0 527.0 L 529.0 527.0 L 530.0 526.0 L 529.0 501.0 L 531.0 499.0 L 557.0 499.0 L 568.0 497.0 L 580.0 491.0 L 587.0 484.0 L 592.0 472.0 L 593.0 465.0 L 592.0 455.0 L 586.0 442.0 L 581.0 437.0 Z M 530.0 448.0 L 532.0 446.0 L 554.0 446.0 L 562.0 449.0 L 568.0 455.0 L 570.0 459.0 L 570.0 468.0 L 568.0 473.0 L 562.0 479.0 L 556.0 481.0 L 532.0 481.0 L 530.0 479.0 Z M 640.0 429.0 L 629.0 434.0 L 622.0 439.0 L 613.0 449.0 L 608.0 459.0 L 605.0 470.0 L 605.0 486.0 L 608.0 498.0 L 614.0 509.0 L 623.0 518.0 L 637.0 526.0 L 650.0 529.0 L 667.0 529.0 L 679.0 526.0 L 690.0 520.0 L 698.0 513.0 L 698.0 511.0 L 685.0 498.0 L 676.0 506.0 L 666.0 510.0 L 652.0 510.0 L 642.0 506.0 L 634.0 499.0 L 629.0 490.0 L 627.0 482.0 L 628.0 468.0 L 634.0 457.0 L 639.0 452.0 L 648.0 447.0 L 667.0 446.0 L 676.0 450.0 L 683.0 456.0 L 685.0 456.0 L 698.0 443.0 L 687.0 434.0 L 673.0 428.0 L 649.0 427.0 Z M 85.0 427.0 L 76.0 429.0 L 67.0 433.0 L 58.0 441.0 L 55.0 446.0 L 53.0 454.0 L 54.0 466.0 L 57.0 472.0 L 66.0 480.0 L 83.0 486.0 L 99.0 489.0 L 107.0 493.0 L 111.0 500.0 L 110.0 504.0 L 105.0 509.0 L 100.0 511.0 L 82.0 511.0 L 72.0 508.0 L 58.0 501.0 L 51.0 517.0 L 62.0 524.0 L 75.0 528.0 L 102.0 529.0 L 113.0 526.0 L 121.0 522.0 L 128.0 515.0 L 133.0 501.0 L 133.0 495.0 L 131.0 488.0 L 123.0 478.0 L 116.0 474.0 L 91.0 468.0 L 80.0 464.0 L 76.0 460.0 L 75.0 455.0 L 76.0 452.0 L 81.0 447.0 L 86.0 445.0 L 103.0 445.0 L 114.0 448.0 L 121.0 452.0 L 128.0 435.0 L 110.0 428.0 Z "/>
  </g>
</svg>
